<?xml version="1.0" encoding="UTF-8" standalone="no"?>
<svg
   xmlns:dc="http://purl.org/dc/elements/1.1/"
   xmlns:cc="http://creativecommons.org/ns#"
   xmlns:rdf="http://www.w3.org/1999/02/22-rdf-syntax-ns#"
   xmlns:svg="http://www.w3.org/2000/svg"
   xmlns="http://www.w3.org/2000/svg"
   xmlns:sodipodi="http://sodipodi.sourceforge.net/DTD/sodipodi-0.dtd"
   xmlns:inkscape="http://www.inkscape.org/namespaces/inkscape"
   width="24"
   height="24"
   viewBox="0 0 6.35 6.3499997"
   version="1.1"
   id="svg8"
   inkscape:version="1.0.1 (3bc2e813f5, 2020-09-07)"
   sodipodi:docname="simplesave-app-icon.svg"
   inkscape:export-filename="/home/natasha/dev-personal/simplesave/src/assets/icons/icon-72x72.png"
   inkscape:export-xdpi="288"
   inkscape:export-ydpi="288">
  <defs
     id="defs2" />
  <sodipodi:namedview
     id="base"
     pagecolor="#ffffff"
     bordercolor="#666666"
     borderopacity="1.0"
     inkscape:pageopacity="0"
     inkscape:pageshadow="2"
     inkscape:zoom="22.4"
     inkscape:cx="8.6602717"
     inkscape:cy="12.062944"
     inkscape:document-units="px"
     inkscape:current-layer="layer2"
     inkscape:document-rotation="0"
     showgrid="false"
     inkscape:window-width="1452"
     inkscape:window-height="1016"
     inkscape:window-x="240"
     inkscape:window-y="27"
     inkscape:window-maximized="0"
     units="px"
     inkscape:pagecheckerboard="false"
     showborder="true"
     inkscape:showpageshadow="false"
     borderlayer="false" />
  <metadata
     id="metadata5">
    <rdf:RDF>
      <cc:Work
         rdf:about="">
        <dc:format>image/svg+xml</dc:format>
        <dc:type
           rdf:resource="http://purl.org/dc/dcmitype/StillImage" />
        <dc:title></dc:title>
      </cc:Work>
    </rdf:RDF>
  </metadata>
  <g
     inkscape:groupmode="layer"
     id="layer2"
     inkscape:label="Circle">
    <circle
       style="fill:#ffffff;stroke:#333333;stroke-width:0.152268;stroke-opacity:0.996601"
       id="path841"
       cx="3.1749997"
       cy="3.1749997"
       r="2.8342824" />
  </g>
  <g
     inkscape:label="Layer 1"
     inkscape:groupmode="layer"
     id="layer1"
     transform="translate(-70.201996,-86.341059)">
    <g
       id="g885">
      <path
         d="m 71.716545,90.490907 h 0.66515 c 0,0.359179 0.455626,0.665146 0.99772,0.665146 0.542093,0 0.997719,-0.305967 0.997719,-0.665146 0,-0.36583 -0.34588,-0.49886 -1.077537,-0.675124 -0.705059,-0.176263 -1.583052,-0.395761 -1.583052,-1.320315 0,-0.595306 0.488885,-1.100817 1.164004,-1.270429 v -0.72501 h 0.997719 v 0.72501 c 0.675131,0.169612 1.164004,0.675123 1.164004,1.270429 h -0.665138 c 0,-0.359179 -0.455626,-0.665146 -0.997719,-0.665146 -0.542094,0 -0.99772,0.305967 -0.99772,0.665146 0,0.365831 0.345868,0.49886 1.077537,0.675123 0.705047,0.176265 1.58304,0.395763 1.58304,1.320316 0,0.595305 -0.488873,1.100817 -1.164004,1.27043 v 0.725009 h -0.997719 v -0.725009 c -0.675119,-0.169613 -1.164004,-0.675125 -1.164004,-1.27043 z"
         id="path98"
         style="fill:#3f51b5;fill-opacity:1;stroke:none;stroke-width:0.081703;stroke-miterlimit:4;stroke-dasharray:none;stroke-opacity:0.996601" />
      <path
         d="m 75.354889,88.795995 -2.660577,2.55768 -1.219431,-1.172269 0.312618,-0.300528 0.906813,0.869612 2.34796,-2.255022 z"
         id="path976"
         style="fill:#ff4081;fill-opacity:1;stroke-width:0.216695;stroke-miterlimit:4;stroke-dasharray:none" />
    </g>
  </g>
</svg>
